<mxfile host="app.diagrams.net" agent="Mozilla/5.0 (Windows NT 10.0; Win64; x64) AppleWebKit/537.36 (KHTML, like Gecko) Chrome/133.0.0.0 Safari/537.36" version="26.0.15">
  <diagram name="Страница — 1" id="GJgwgT7ZTe0i4y8zcMvH">
    <mxGraphModel dx="1750" dy="928" grid="1" gridSize="10" guides="1" tooltips="1" connect="1" arrows="1" fold="1" page="1" pageScale="1" pageWidth="827" pageHeight="1169" math="0" shadow="0">
      <root>
        <mxCell id="0" />
        <mxCell id="1" parent="0" />
        <mxCell id="kLPljUpnEwmoTG4HpY81-1" value="Аренда помещений" style="swimlane;whiteSpace=wrap;html=1;" vertex="1" parent="1">
          <mxGeometry x="300" y="180" width="220" height="750" as="geometry" />
        </mxCell>
        <mxCell id="kLPljUpnEwmoTG4HpY81-5" value="Просмотр помещений" style="ellipse;whiteSpace=wrap;html=1;" vertex="1" parent="kLPljUpnEwmoTG4HpY81-1">
          <mxGeometry x="30" y="30" width="110" height="40" as="geometry" />
        </mxCell>
        <mxCell id="kLPljUpnEwmoTG4HpY81-6" value="Фильтрация помещений" style="ellipse;whiteSpace=wrap;html=1;" vertex="1" parent="kLPljUpnEwmoTG4HpY81-1">
          <mxGeometry x="30" y="90" width="110" height="40" as="geometry" />
        </mxCell>
        <mxCell id="kLPljUpnEwmoTG4HpY81-7" value="Поиск помещений" style="ellipse;whiteSpace=wrap;html=1;" vertex="1" parent="kLPljUpnEwmoTG4HpY81-1">
          <mxGeometry x="30" y="140" width="110" height="40" as="geometry" />
        </mxCell>
        <mxCell id="kLPljUpnEwmoTG4HpY81-8" value="Оформление заявки на аренду помещения" style="ellipse;whiteSpace=wrap;html=1;" vertex="1" parent="kLPljUpnEwmoTG4HpY81-1">
          <mxGeometry x="24" y="200" width="160" height="60" as="geometry" />
        </mxCell>
        <mxCell id="kLPljUpnEwmoTG4HpY81-9" value="Оформление заявки на продление аренды" style="ellipse;whiteSpace=wrap;html=1;" vertex="1" parent="kLPljUpnEwmoTG4HpY81-1">
          <mxGeometry x="30" y="280" width="160" height="60" as="geometry" />
        </mxCell>
        <mxCell id="kLPljUpnEwmoTG4HpY81-10" value="Просмотр информации арендуемых помещений" style="ellipse;whiteSpace=wrap;html=1;" vertex="1" parent="kLPljUpnEwmoTG4HpY81-1">
          <mxGeometry x="29" y="440" width="160" height="60" as="geometry" />
        </mxCell>
        <mxCell id="kLPljUpnEwmoTG4HpY81-11" value="Оформление заявки на дополнительные услуги" style="ellipse;whiteSpace=wrap;html=1;" vertex="1" parent="kLPljUpnEwmoTG4HpY81-1">
          <mxGeometry x="29" y="510" width="160" height="60" as="geometry" />
        </mxCell>
        <mxCell id="kLPljUpnEwmoTG4HpY81-13" value="Оформление заявки на досрочное завершение аренды" style="ellipse;whiteSpace=wrap;html=1;" vertex="1" parent="kLPljUpnEwmoTG4HpY81-1">
          <mxGeometry x="30" y="360" width="170" height="70" as="geometry" />
        </mxCell>
        <mxCell id="kLPljUpnEwmoTG4HpY81-14" value="Оставить отзыв и оценку на ранее арендуемое помещение" style="ellipse;whiteSpace=wrap;html=1;" vertex="1" parent="kLPljUpnEwmoTG4HpY81-1">
          <mxGeometry x="24" y="660" width="186" height="70" as="geometry" />
        </mxCell>
        <mxCell id="kLPljUpnEwmoTG4HpY81-15" value="Смена способа оплаты аренды и дополнительных услуг" style="ellipse;whiteSpace=wrap;html=1;" vertex="1" parent="kLPljUpnEwmoTG4HpY81-1">
          <mxGeometry x="26" y="580" width="175" height="70" as="geometry" />
        </mxCell>
        <mxCell id="kLPljUpnEwmoTG4HpY81-2" value="Арендатор" style="shape=umlActor;verticalLabelPosition=bottom;verticalAlign=top;html=1;outlineConnect=0;" vertex="1" parent="1">
          <mxGeometry x="140" y="490" width="30" height="60" as="geometry" />
        </mxCell>
        <mxCell id="kLPljUpnEwmoTG4HpY81-18" value="" style="endArrow=none;html=1;rounded=0;" edge="1" parent="1">
          <mxGeometry width="50" height="50" relative="1" as="geometry">
            <mxPoint x="150" y="480" as="sourcePoint" />
            <mxPoint x="320" y="240" as="targetPoint" />
          </mxGeometry>
        </mxCell>
        <mxCell id="kLPljUpnEwmoTG4HpY81-19" value="" style="endArrow=none;html=1;rounded=0;" edge="1" parent="1">
          <mxGeometry width="50" height="50" relative="1" as="geometry">
            <mxPoint x="160" y="480" as="sourcePoint" />
            <mxPoint x="320" y="300" as="targetPoint" />
          </mxGeometry>
        </mxCell>
        <mxCell id="kLPljUpnEwmoTG4HpY81-20" value="" style="endArrow=none;html=1;rounded=0;" edge="1" parent="1">
          <mxGeometry width="50" height="50" relative="1" as="geometry">
            <mxPoint x="180" y="480" as="sourcePoint" />
            <mxPoint x="320" y="350" as="targetPoint" />
          </mxGeometry>
        </mxCell>
        <mxCell id="kLPljUpnEwmoTG4HpY81-21" value="" style="endArrow=none;html=1;rounded=0;" edge="1" parent="1">
          <mxGeometry width="50" height="50" relative="1" as="geometry">
            <mxPoint x="180" y="490" as="sourcePoint" />
            <mxPoint x="310" y="420" as="targetPoint" />
          </mxGeometry>
        </mxCell>
        <mxCell id="kLPljUpnEwmoTG4HpY81-22" value="" style="endArrow=none;html=1;rounded=0;" edge="1" parent="1">
          <mxGeometry width="50" height="50" relative="1" as="geometry">
            <mxPoint x="190" y="500" as="sourcePoint" />
            <mxPoint x="320" y="490" as="targetPoint" />
          </mxGeometry>
        </mxCell>
        <mxCell id="kLPljUpnEwmoTG4HpY81-23" value="" style="endArrow=none;html=1;rounded=0;" edge="1" parent="1">
          <mxGeometry width="50" height="50" relative="1" as="geometry">
            <mxPoint x="190" y="520" as="sourcePoint" />
            <mxPoint x="320" y="570" as="targetPoint" />
          </mxGeometry>
        </mxCell>
        <mxCell id="kLPljUpnEwmoTG4HpY81-24" value="" style="endArrow=none;html=1;rounded=0;" edge="1" parent="1">
          <mxGeometry width="50" height="50" relative="1" as="geometry">
            <mxPoint x="190" y="530" as="sourcePoint" />
            <mxPoint x="320" y="640" as="targetPoint" />
          </mxGeometry>
        </mxCell>
        <mxCell id="kLPljUpnEwmoTG4HpY81-25" value="" style="endArrow=none;html=1;rounded=0;" edge="1" parent="1">
          <mxGeometry width="50" height="50" relative="1" as="geometry">
            <mxPoint x="180" y="550" as="sourcePoint" />
            <mxPoint x="320" y="700" as="targetPoint" />
          </mxGeometry>
        </mxCell>
        <mxCell id="kLPljUpnEwmoTG4HpY81-26" value="" style="endArrow=none;html=1;rounded=0;" edge="1" parent="1">
          <mxGeometry width="50" height="50" relative="1" as="geometry">
            <mxPoint x="170" y="580" as="sourcePoint" />
            <mxPoint x="320" y="780" as="targetPoint" />
          </mxGeometry>
        </mxCell>
        <mxCell id="kLPljUpnEwmoTG4HpY81-27" value="" style="endArrow=none;html=1;rounded=0;" edge="1" parent="1">
          <mxGeometry width="50" height="50" relative="1" as="geometry">
            <mxPoint x="160" y="590" as="sourcePoint" />
            <mxPoint x="320" y="850" as="targetPoint" />
          </mxGeometry>
        </mxCell>
      </root>
    </mxGraphModel>
  </diagram>
</mxfile>
